<svg width="192" height="192" viewBox="0 0 192 192" fill="none" xmlns="http://www.w3.org/2000/svg">
<path d="M190.79 171H1.21C0.54 171 0 170.47 0 169.81C0 169.15 0.54 168.62 1.21 168.62H190.79C191.46 168.62 192 169.15 192 169.81C192 170.47 191.46 171 190.79 171Z" fill="#939598"/>
<path fill-rule="evenodd" clip-rule="evenodd" d="M86.33 29.31C87.75 30.86 91.57 31.33 93.29 31.46L93.2821 31.5211C93.2634 31.663 93.2438 31.8115 93.27 31.96C93.27 33.92 94.88 35.51 96.87 35.51C97.94 35.51 98.89 35.04 99.55 34.31C100.89 35.65 103.24 37.7 105.1 37.81C105.2 37.82 105.3 37.82 105.4 37.82C108.04 37.82 110.27 35.78 110.43 33.14C110.59 30.4 108.47 28.04 105.69 27.88C103.97 27.78 101.64 29.28 100.11 30.44C99.53 29.24 98.3 28.4 96.86 28.4C96.3 28.4 95.77 28.53 95.3 28.76C95.28 26.86 95.03 23.94 93.83 22.63C92.92 21.65 91.69 21.07 90.34 21C88.99 20.94 87.7 21.39 86.7 22.28C85.7 23.17 85.11 24.39 85.04 25.72C84.97 27.05 85.43 28.32 86.33 29.31ZM94.36 40.66C94.36 40.6642 94.3493 40.7017 94.3296 40.77C94.2565 41.0241 94.0607 41.7049 93.84 42.69C93.73 43.2 93.27 43.55 92.76 43.55C92.68 43.55 92.6 43.54 92.52 43.52C91.92 43.39 91.54 42.81 91.67 42.22C91.9351 41.0185 92.1611 40.2463 92.2171 40.055L92.2171 40.055L92.2171 40.0549C92.2245 40.0297 92.2289 40.0147 92.23 40.01C92.41 39.43 93.03 39.11 93.62 39.28C94.21 39.47 94.54 40.08 94.36 40.66ZM108.79 63.18C108.26 62.87 107.58 63.04 107.27 63.56C106.49 64.87 105.8 66.24 105.24 67.64C105.01 68.2 105.29 68.84 105.86 69.06C105.99 69.11 106.13 69.14 106.27 69.14C106.71 69.14 107.13 68.88 107.3 68.45C107.82 67.16 108.45 65.89 109.18 64.68C109.49 64.16 109.32 63.49 108.79 63.18ZM113.08 74.73C111.49 74.65 109.97 74.48 108.54 74.23C107.94 74.13 107.53 73.56 107.65 72.97C107.76 72.37 108.34 71.98 108.94 72.08C110.27 72.31 111.71 72.47 113.2 72.54C113.81 72.57 114.28 73.09 114.25 73.69C114.22 74.28 113.73 74.73 113.14 74.73H113.08ZM141.6 59.72C141.36 59.17 140.7 58.91 140.14 59.15C139.58 59.39 139.32 60.04 139.57 60.59C139.94 61.43 140.13 62.25 140.13 63.03C140.13 63.42 140.08 63.8 139.99 64.16C139.84 64.75 140.21 65.34 140.8 65.48C140.89 65.5 140.98 65.51 141.06 65.51C141.56 65.51 142.01 65.18 142.14 64.68C142.27 64.14 142.34 63.59 142.34 63.03C142.34 61.95 142.09 60.83 141.6 59.72ZM118.04 55.82C117.86 55.92 117.67 55.97 117.48 55.97C117.09 55.97 116.72 55.78 116.53 55.42C116.22 54.89 116.4 54.22 116.93 53.92C118.31 53.13 119.74 52.5 121.19 52.04C121.77 51.86 122.39 52.17 122.58 52.75C122.77 53.33 122.44 53.95 121.86 54.13C120.57 54.54 119.28 55.11 118.04 55.82ZM110.07 61.39C110.28 61.56 110.53 61.64 110.78 61.64C111.1 61.64 111.42 61.51 111.63 61.24C112.55 60.15 113.55 59.14 114.6 58.24C115.06 57.85 115.11 57.15 114.71 56.7C114.31 56.24 113.61 56.19 113.15 56.59C112 57.57 110.92 58.66 109.92 59.85C109.53 60.32 109.6 61.01 110.07 61.39ZM116.46 73.68C116.43 73.08 116.91 72.57 117.52 72.54C118.9 72.48 120.36 72.36 121.86 72.17C122.46 72.1 123.02 72.53 123.09 73.13C123.16 73.73 122.73 74.28 122.12 74.35C120.57 74.53 119.06 74.66 117.62 74.72H117.57C116.98 74.72 116.49 74.27 116.46 73.68ZM125.93 53.38C126.24 53.36 126.55 53.35 126.86 53.35C127.93 53.35 129 53.46 130.05 53.68C130.13 53.7 130.21 53.7 130.28 53.7C130.79 53.7 131.25 53.35 131.36 52.83C131.49 52.24 131.11 51.66 130.51 51.53C129.31 51.28 128.09 51.15 126.86 51.15C126.51 51.15 126.15 51.16 125.8 51.18C125.19 51.22 124.72 51.73 124.76 52.34C124.79 52.95 125.32 53.42 125.93 53.38ZM91.72 52.23H91.71C91.1 52.22 90.61 51.73 90.61 51.12C90.63 49.67 90.74 48.16 90.92 46.64C90.99 46.04 91.54 45.61 92.15 45.68C92.76 45.76 93.19 46.3 93.12 46.9C92.95 48.35 92.85 49.78 92.83 51.15C92.82 51.75 92.33 52.23 91.72 52.23ZM95.46 63.31C95.17 62.78 94.49 62.58 93.96 62.87C93.42 63.16 93.22 63.82 93.52 64.35C94.28 65.73 95.21 67 96.26 68.12C96.48 68.35 96.77 68.47 97.07 68.47C97.34 68.47 97.61 68.37 97.83 68.18C98.28 67.77 98.3 67.08 97.88 66.63C96.95 65.65 96.13 64.53 95.46 63.31ZM106.98 88.19C107.51 87.9 108.19 88.08 108.49 88.61C109.18 89.81 109.99 90.96 110.91 92.02C111.3 92.48 111.25 93.17 110.78 93.56C110.57 93.73 110.31 93.82 110.06 93.82C109.74 93.82 109.43 93.68 109.21 93.43C108.21 92.27 107.32 91.01 106.56 89.68C106.26 89.15 106.45 88.49 106.98 88.19ZM125.35 100.61C123.92 100.19 122.55 99.71 121.28 99.18C120.72 98.95 120.06 99.21 119.83 99.77C119.59 100.33 119.86 100.97 120.43 101.2C121.77 101.75 123.21 102.26 124.72 102.7C124.83 102.73 124.93 102.75 125.04 102.75C125.52 102.75 125.96 102.44 126.1 101.97C126.27 101.39 125.94 100.78 125.35 100.61ZM113.92 94.93C114.99 95.79 116.17 96.59 117.43 97.31C117.96 97.62 118.14 98.28 117.83 98.82C117.62 99.16 117.25 99.36 116.87 99.36C116.68 99.36 116.49 99.31 116.31 99.21C114.95 98.43 113.68 97.56 112.52 96.63C112.04 96.25 111.97 95.56 112.36 95.09C112.75 94.62 113.45 94.55 113.92 94.93ZM134.43 55.29C135.42 55.82 136.4 56.54 137.26 57.38C137.48 57.59 137.76 57.7 138.04 57.7C138.33 57.7 138.61 57.59 138.83 57.37C139.26 56.94 139.26 56.25 138.82 55.82C137.81 54.84 136.66 53.99 135.49 53.36C135.31 53.26 135.13 53.17 134.95 53.08C134.4 52.81 133.74 53.03 133.46 53.57C133.18 54.11 133.41 54.77 133.95 55.04C134.11 55.13 134.27 55.21 134.43 55.29ZM130.42 70.63C131.01 70.48 131.62 70.83 131.78 71.41C131.94 72 131.59 72.6 130.99 72.74C130.1 72.97 129.16 73.19 128.18 73.38C128 73.4133 127.82 73.4478 127.64 73.4822C127.28 73.5511 126.92 73.62 126.56 73.68L126.537 73.6833C126.476 73.6921 126.422 73.7 126.36 73.7C125.83 73.7 125.37 73.33 125.27 72.8C125.17 72.21 125.57 71.64 126.17 71.53C126.7 71.44 127.23 71.34 127.75 71.24C128.69 71.05 129.58 70.85 130.42 70.63ZM104.36 77.65H104.4C104.99 77.65 105.48 77.19 105.51 76.6C105.56 75.23 105.75 73.84 106.05 72.46C106.18 71.87 105.8 71.29 105.2 71.16L105.179 71.1557C105.138 71.1473 105.103 71.14 105.06 71.14C104.99 71.09 104.91 71.05 104.82 71.02C103.46 70.54 102.19 69.93 101.06 69.23C100.54 68.91 99.86 69.06 99.53 69.57C99.2 70.08 99.36 70.76 99.88 71.08C101.04 71.8 102.32 72.43 103.69 72.94C103.47 74.13 103.34 75.33 103.29 76.52C103.27 77.12 103.75 77.63 104.36 77.65ZM134.46 69.28C135.89 68.67 137.06 67.97 137.96 67.2C138.42 66.8 139.12 66.85 139.52 67.31C139.92 67.76 139.87 68.45 139.41 68.85C138.34 69.76 136.98 70.58 135.35 71.28C135.21 71.34 135.06 71.37 134.91 71.37C134.48 71.37 134.07 71.13 133.89 70.72C133.64 70.17 133.9 69.52 134.46 69.28ZM93.88 59.49C93.5 58.21 93.22 56.83 93.05 55.38C92.98 54.78 92.43 54.35 91.82 54.42C91.21 54.49 90.78 55.03 90.85 55.63C91.04 57.2 91.34 58.7 91.75 60.09C91.89 60.57 92.33 60.88 92.81 60.88C92.91 60.88 93.02 60.87 93.12 60.84C93.71 60.67 94.05 60.07 93.88 59.49ZM106.08 82.5C106.27 83.29 106.5 84.07 106.76 84.81C106.96 85.38 106.65 86 106.08 86.2C105.96 86.24 105.84 86.26 105.72 86.26C105.26 86.26 104.83 85.97 104.67 85.52C104.39 84.71 104.14 83.86 103.93 83.01C103.78 82.38 103.65 81.73 103.55 81.09C103.46 80.49 103.87 79.93 104.48 79.84C105.08 79.75 105.65 80.16 105.74 80.76C105.83 81.34 105.94 81.93 106.08 82.5ZM131.78 102.11C131.643 102.083 131.499 102.055 131.349 102.026L131.347 102.025C130.832 101.925 130.249 101.812 129.63 101.68C129.03 101.55 128.44 101.93 128.31 102.52C128.18 103.11 128.56 103.69 129.16 103.82C129.85 103.97 130.485 104.092 131.035 104.197L131.036 104.198L131.36 104.26C131.43 104.27 131.5 104.28 131.57 104.28C132.09 104.28 132.56 103.92 132.66 103.39C132.78 102.8 132.39 102.22 131.78 102.11ZM101.21 32.61C102.93 34.33 104.56 35.4 105.22 35.44C106.67 35.52 107.91 34.43 107.99 33.01C108.08 31.59 106.97 30.36 105.53 30.27C104.87 30.24 103.12 31.1 101.21 32.61ZM92.02 24.24C92.47 24.73 92.87 26.61 92.87 29.03C90.43 28.78 88.57 28.2 88.12 27.72C87.65 27.2 87.41 26.54 87.45 25.85C87.48 25.16 87.79 24.52 88.31 24.06C88.8 23.62 89.42 23.39 90.07 23.39H90.21C90.91 23.43 91.55 23.73 92.02 24.24Z" fill="#41EB91"/>
<path d="M155.44 102.66H105.19H93.5499V169.73H105.19H155.44H175.81V102.66H155.44Z" fill="white"/>
<path fill-rule="evenodd" clip-rule="evenodd" d="M163.42 101.47H175.81C176.48 101.47 177.02 102 177.03 102.66V169.73C177.03 170.39 176.49 170.92 175.82 170.92H155.45H93.55C92.88 170.92 92.34 170.39 92.34 169.73V102.66C92.34 102 92.88 101.47 93.55 101.47H105.28V94.71C105.28 84.45 113.75 76.1 124.15 76.1C127.91 76.1 131.41 77.21 134.35 79.08C137.3 77.2 140.79 76.1 144.55 76.1C154.96 76.1 163.42 84.45 163.42 94.71V101.47ZM124.16 78.49C115.09 78.49 107.71 85.77 107.71 94.71V101.47H125.69V94.71C125.69 89.08 128.25 84.03 132.27 80.62C129.87 79.27 127.11 78.49 124.16 78.49ZM140.6 94.71V101.47H128.1V94.71C128.1 89.57 130.55 84.98 134.35 82.01C138.16 84.98 140.6 89.56 140.6 94.71ZM94.76 168.54H150.25C152.45 168.54 154.23 166.78 154.24 164.6V106.32C154.24 104.96 153.12 103.85 151.73 103.85H94.76V168.54ZM143.03 101.47V94.71C143.03 89.08 140.47 84.03 136.45 80.62C138.85 79.27 141.61 78.49 144.56 78.49C153.63 78.49 161.01 85.77 161.01 94.71V101.47H155.45H143.03ZM159.99 168.54H171.26C173.11 168.54 174.6 167.06 174.6 165.25V106.33C174.6 104.97 173.48 103.86 172.09 103.86H159.16C157.77 103.86 156.65 104.96 156.65 106.33V165.25C156.65 167.07 158.15 168.54 159.99 168.54Z" fill="#939598"/>
<path d="M102.65 151.17L89.5301 114.13C91.59 112.51 93.5601 110.18 94.5401 106.88C98.1901 94.58 83.5801 85.25 83.5801 85.25C83.5801 85.25 87.0801 75.79 82.9701 73.69C78.8601 71.59 72.9201 82.25 72.9201 82.25L73.1001 82.89C67.09 82.14 62.8001 82.68 59.9101 83.48L59.6801 83.24C59.6801 83.24 58.6301 71.15 54.9501 73.22C53.0101 74.32 41.0001 98.91 34.6301 122.99C34.4001 120.66 33.7401 118.51 32.4101 116.64C31.1001 114.81 28.5501 112.52 23.8301 111.95C17.6801 111.21 12.5201 113.74 9.30005 119.05C8.60005 120.2 8.08005 121.36 7.68005 122.41C6.83005 124.68 7.79005 127.22 9.92005 128.41C12.5001 129.85 15.7801 128.78 16.9801 126.1C17.3601 125.25 17.7401 124.48 18.0601 123.98C19.2001 122.2 20.5201 121.57 22.6101 121.82C22.9901 121.87 23.9101 122.01 24.1601 122.37C24.3201 122.59 24.8101 123.54 24.5601 126.5C24.3301 129.17 23.6101 132.35 22.8401 135.73C20.9101 144.24 18.9101 153.04 23.5701 159.07C25.9801 162.18 29.7201 163.9 34.6801 164.22C36.5801 166.75 39.2101 168.51 42.7501 169.26L98.6301 169.35L99.6201 168.15C103.57 163.4 104.71 156.97 102.65 151.17Z" fill="white"/>
<path fill-rule="evenodd" clip-rule="evenodd" d="M59.9301 102.58C63.9701 103.25 67.4301 102.65 67.6701 101.24C67.9101 99.83 64.8501 98.13 60.8201 97.45C56.7801 96.78 53.3201 97.38 53.0801 98.79C52.8401 100.2 55.9101 101.91 59.9301 102.58ZM83.7701 101.29C83.4601 99.99 85.7301 98.37 88.8101 97.66C91.8901 96.97 94.6401 97.44 94.9601 98.74C95.2701 100.04 93.0001 101.66 89.9201 102.37C86.8201 103.06 84.0701 102.59 83.7701 101.29Z" fill="#F0F0F0"/>
<path fill-rule="evenodd" clip-rule="evenodd" d="M107.63 103.86C103.5 102.1 99.9101 101.14 96.4201 100.9C96.0301 97.52 94.4201 94.1 91.6201 90.78C89.0201 87.7 86.1301 85.55 84.8701 84.68C84.9901 83.71 85.1701 81.92 85.2401 80.03C85.4401 74.62 84.4901 73.27 83.6401 72.71C82.8101 72.15 81.8201 71.99 80.7901 72.24C76.7501 73.2 72.4701 80.6 71.8901 81.63C66.7001 81.14 63.1201 81.61 60.7901 82.25C60.6901 81.37 60.4901 79.95 60.1701 78.45C59.4001 74.85 58.3801 72.83 56.9701 72.1C56.1501 71.68 55.2201 71.71 54.3501 72.2C53.3201 72.78 51.2901 76.23 48.3401 82.44C45.9101 87.55 43.4001 93.44 41.1101 99.39C37.8615 99.4593 35.5252 99.6464 35.2378 99.6694H35.2378L35.2377 99.6694L35.2377 99.6694L35.2301 99.67C34.5601 99.72 34.0701 100.3 34.1201 100.96C34.1801 101.62 34.7601 102.1 35.4301 102.05C35.4374 102.05 35.4846 102.047 35.5686 102.04C36.0585 102.005 37.8 101.878 40.1901 101.81C40.1242 101.988 40.0583 102.166 39.9926 102.344L39.9923 102.345C39.7486 103.004 39.5062 103.659 39.2701 104.32C37.4501 109.36 35.9401 113.98 34.7001 118.23C34.3501 117.45 33.9301 116.69 33.4101 115.97C31.9601 113.95 29.1501 111.41 23.9901 110.79C18.6501 110.15 14.0001 111.79 10.5701 115.43C10.1801 115.84 9.81006 116.29 9.45006 116.75C9.38006 116.83 9.32006 116.92 9.26006 117.01C8.92006 117.47 8.59006 117.95 8.28006 118.46C8.09006 118.77 7.92006 119.11 7.75006 119.45C7.32006 120.27 6.91006 121.11 6.57006 122.02C6.44006 122.37 6.34006 122.73 6.27006 123.09C5.82006 125.6 7.01006 128.17 9.35006 129.48C9.57006 129.6 9.79006 129.7 10.0201 129.8C10.0551 129.815 10.0926 129.827 10.1301 129.84C10.1676 129.852 10.2051 129.865 10.2401 129.88C10.4001 129.94 10.5601 129.99 10.7201 130.04C10.7601 130.05 10.8026 130.06 10.8451 130.07C10.8876 130.08 10.9301 130.09 10.9701 130.1C11.1301 130.14 11.2901 130.17 11.4601 130.19C11.5001 130.195 11.5401 130.202 11.5801 130.21C11.6201 130.217 11.6601 130.225 11.7001 130.23C11.9001 130.25 12.1101 130.27 12.3101 130.27C12.3251 130.27 12.3426 130.272 12.3601 130.275L12.3602 130.275C12.3776 130.278 12.3951 130.28 12.4101 130.28H12.4301C12.7201 130.28 13.0101 130.25 13.3001 130.21L13.5101 130.18C13.8001 130.13 14.0901 130.06 14.3801 129.97C16.0501 129.42 17.4101 128.2 18.1201 126.62C18.6201 125.5 18.9401 124.93 19.1101 124.66C19.3301 124.32 19.5501 124.04 19.7801 123.81C19.7901 123.8 19.7901 123.79 19.7901 123.79C20.4801 123.1 21.2701 122.91 22.4901 123.06C22.8401 123.1 23.1001 123.16 23.2401 123.21C23.3401 123.51 23.5601 124.4 23.3801 126.45C23.1685 128.941 22.4943 131.941 21.7758 135.138L21.6901 135.52L21.677 135.578C19.691 144.34 17.641 153.384 22.6401 159.85C25.1701 163.12 29.0201 164.98 34.0501 165.41C36.1601 168.03 39.0001 169.73 42.5501 170.48C42.5851 170.485 42.6176 170.488 42.6501 170.49C42.6826 170.492 42.7151 170.495 42.7501 170.5L98.6601 170.59C99.0201 170.59 99.3701 170.43 99.6001 170.15C101.96 167.29 103.55 163.86 104.19 160.23C104.83 156.6 104.52 152.84 103.29 149.36L90.8301 114.19C92.3201 112.94 93.8201 111.27 94.9301 109.05C96.4901 109.57 98.4601 110.38 100.83 111.69C101.02 111.79 101.22 111.84 101.42 111.84C101.84 111.84 102.25 111.62 102.48 111.23C102.81 110.66 102.6 109.93 102.02 109.61C99.5301 108.23 97.5001 107.38 95.8501 106.84C96.2201 105.69 96.4501 104.52 96.5201 103.34C99.6701 103.59 102.93 104.48 106.69 106.08C106.85 106.15 107.01 106.18 107.17 106.18C107.64 106.18 108.08 105.91 108.28 105.46C108.52 104.83 108.24 104.13 107.63 103.86ZM74.9801 98.39L81.0101 98.49C81.8201 98.5 82.5401 98.91 82.9601 99.6C83.3701 100.3 83.3601 101.13 82.9501 101.82C82.9101 101.89 82.8601 101.96 82.8001 102.02L81.0901 103.86C80.9501 104.07 80.7901 104.26 80.6001 104.43C79.9301 105.04 79.5801 105.93 79.5201 106.83L79.4401 107.92C79.3901 108.55 78.8601 109.03 78.2301 109.03H78.1401C77.4801 108.99 76.9701 108.42 77.0201 107.76L77.0701 107C77.1401 105.99 76.7201 105.03 76.0201 104.28L76.0101 104.27L73.4101 102.18C73.3501 102.14 73.2901 102.08 73.2401 102.02C72.6701 101.35 72.5601 100.45 72.9301 99.66C73.3001 98.88 74.0801 98.39 74.9601 98.39H74.9801ZM79.0601 102.54C79.1001 102.47 79.1501 102.4 79.2101 102.34L80.5801 100.87L75.4901 100.78L77.6101 102.48C77.6701 102.52 77.7301 102.58 77.7801 102.64C78.0201 102.92 78.3301 102.93 78.4501 102.92C78.5701 102.91 78.8701 102.85 79.0601 102.54ZM42.1301 126.04C40.4201 124.61 37.2801 124.15 35.6001 124.05L35.5226 124.356C35.3186 125.162 35.1165 125.961 34.9301 126.76C38.0201 126.74 40.9401 126.44 42.1301 126.04ZM16.6401 124.07C16.5401 124.25 16.4401 124.43 16.3801 124.56C16.2201 124.88 16.0601 125.22 15.8801 125.62C15.6601 126.11 15.3501 126.54 14.9601 126.89C14.8833 126.959 14.7949 127.016 14.7036 127.075L14.7031 127.076C14.6756 127.094 14.6478 127.111 14.6201 127.13C14.5811 127.157 14.5436 127.186 14.5065 127.215L14.5065 127.215L14.5064 127.215L14.5064 127.215L14.5064 127.215C14.4483 127.259 14.391 127.303 14.3301 127.34C14.3201 127.345 14.3126 127.347 14.3051 127.35L14.305 127.35C14.2975 127.353 14.29 127.355 14.2801 127.36C14.0701 127.48 13.8401 127.58 13.6001 127.66C13.5701 127.67 13.5401 127.675 13.5101 127.68C13.4801 127.685 13.4501 127.69 13.4201 127.7C12.4401 127.97 11.4201 127.86 10.5301 127.37C9.73006 126.93 9.16006 126.24 8.85006 125.46C8.52006 124.64 8.49006 123.7 8.82006 122.82C9.25006 121.69 9.76006 120.62 10.3401 119.66C10.5401 119.32 10.7601 119 10.9801 118.69C11.0311 118.613 11.0862 118.541 11.1401 118.47C11.1708 118.43 11.2011 118.39 11.2301 118.35C11.3701 118.16 11.5101 117.98 11.6601 117.8C11.7318 117.709 11.8077 117.622 11.8824 117.536C11.9223 117.491 11.9618 117.445 12.0001 117.4C12.0601 117.33 12.1226 117.262 12.1851 117.195C12.2476 117.127 12.3101 117.06 12.3701 116.99C12.4201 116.94 12.6201 116.77 12.8601 116.59C13.3501 116.21 14.0801 116.39 14.3201 116.96L14.4228 117.204C15.0629 118.725 15.7459 120.347 16.6001 121.79C17.0301 122.49 17.0401 123.36 16.6401 124.07ZM24.0213 136.029C22.154 144.267 20.2268 152.769 24.5501 158.35C26.3201 160.65 28.9401 162.11 32.3301 162.74C32.3301 162.74 30.4001 158.07 29.9401 155.12C29.0001 149.15 29.1101 139.07 33.4001 122.83C33.1701 120.79 32.5701 118.93 31.4201 117.33C30.2501 115.7 27.9601 113.65 23.6801 113.14C21.5701 112.89 19.5801 113.06 17.7601 113.63C16.4801 114.03 15.8901 115.47 16.4701 116.66C16.9901 117.73 17.5701 118.83 18.2001 119.86C18.6501 120.6 19.5401 120.94 20.3901 120.74C20.8201 120.64 21.2801 120.59 21.7701 120.59C22.0801 120.59 22.4101 120.61 22.7501 120.65C24.557 120.86 24.9985 121.478 25.1493 121.689L25.1501 121.69C25.5801 122.27 26.0301 123.6 25.7701 126.6C25.5401 129.35 24.8101 132.58 24.0301 135.99L24.0213 136.029ZM40.2201 137.92C38.9801 138.34 35.8701 138.64 32.6301 138.64C32.7371 137.846 32.8681 137.036 33.0016 136.21L33.0501 135.91H33.0701C34.4501 135.91 38.2701 136.29 40.2201 137.92ZM71.7601 166.36C71.5501 167 71.2301 167.6 70.8201 168.12H72.7101C72.3001 167.6 71.9701 167.01 71.7601 166.36ZM93.5801 105.91C93.5301 106.06 93.3501 106.16 93.1901 106.14C92.6001 106.04 92.1101 105.98 91.7201 105.96C91.0601 105.93 90.5201 106.45 90.5201 107.1C90.5201 107.67 90.9501 108.16 91.5301 108.22C91.8001 108.25 92.1501 108.31 92.5301 108.38C89.8312 113.261 84.8255 114.982 84.524 115.085L84.5101 115.09C83.8701 115.28 83.5101 115.95 83.7101 116.58C83.8701 117.09 84.3501 117.42 84.8701 117.42C84.9901 117.42 85.1101 117.4 85.2301 117.37C85.3401 117.34 86.3401 117.01 87.7101 116.28C88.2801 115.97 89.0001 116.23 89.2201 116.84L101.01 150.11C102.35 153.88 102.42 157.95 101.34 161.71C100.24 165.56 96.5801 168.16 92.5201 168.15L81.9901 168.13C82.5201 167.46 82.9301 166.68 83.1201 165.8L86.5001 151.97C86.6601 151.33 86.2601 150.68 85.6101 150.53C84.9601 150.37 84.3101 150.77 84.1501 151.41L80.7701 165.25L80.7301 165.4C80.5201 166.31 79.9601 167.13 79.1201 167.55C76.5201 168.85 73.9201 167 73.9201 164.57C73.9201 164.53 73.9201 164.49 73.9101 164.45L72.3901 149.73C72.383 149.681 72.3661 149.636 72.3497 149.593C72.3428 149.575 72.336 149.558 72.3301 149.54L72.4001 145.88C72.4101 145.22 71.8801 144.68 71.2101 144.67H71.1901C70.5301 144.67 69.9901 145.19 69.9801 145.84L69.6401 164.55V164.68C69.6301 165.79 69.0701 166.85 68.1201 167.42C65.8401 168.8 63.2801 167.45 62.8101 165.28C62.8101 165.278 62.8096 165.275 62.809 165.273C62.808 165.269 62.8065 165.264 62.8051 165.26C62.8026 165.252 62.8001 165.245 62.8001 165.24L58.8601 149.56C58.7001 148.92 58.0401 148.53 57.3901 148.69C56.7401 148.85 56.3501 149.5 56.5101 150.14L60.4501 165.8C60.6401 166.66 61.0301 167.42 61.5501 168.09L44.4601 168.06C43.0801 168.06 41.7001 167.81 40.4301 167.27C36.6501 165.65 34.1701 162.39 32.8801 157.37C31.7801 153.09 31.6001 147.6 32.3401 141H32.4201C33.3001 141 34.8901 140.98 36.5301 140.86C40.4601 140.58 42.2901 139.97 42.8301 138.75C42.9801 138.41 43.2301 137.51 42.2801 136.53C39.7501 133.93 34.8901 133.56 33.4701 133.51C33.7401 132.08 34.0401 130.62 34.3801 129.12C35.2701 129.12 36.8201 129.1 38.4401 128.98C42.3701 128.7 44.2001 128.09 44.7401 126.87C44.8901 126.53 45.1401 125.63 44.1901 124.65C42.0401 122.44 38.2001 121.84 36.2201 121.68C37.4501 117.19 38.9401 112.47 40.6601 107.53C41.1601 106.09 41.6701 104.68 42.1901 103.3C42.5401 102.35 43.4701 101.72 44.5001 101.73C49.4301 101.77 55.2901 102.18 59.1001 103.61C59.2401 103.66 59.3901 103.69 59.5301 103.69C60.0201 103.69 60.4801 103.4 60.6601 102.92C60.9001 102.3 60.5801 101.61 59.9601 101.38C55.8501 99.84 49.7901 99.4 44.6801 99.34C44.2001 99.33 43.8801 98.86 44.0501 98.42C49.3101 85.05 54.4001 75.3 55.5901 74.22C55.7501 74.14 55.8001 74.16 55.8401 74.19C56.9201 74.75 57.9901 78.86 58.4001 82.62C58.4301 82.89 58.2801 83.14 58.0401 83.28C57.2622 83.7322 56.6562 84.3726 56.0961 84.9644C56.037 85.0269 55.9783 85.0889 55.9201 85.15C55.5801 85.5 56.0201 86.06 56.4801 85.89C59.4901 84.78 66.7801 82.8 76.9301 84.74C77.5901 84.86 78.2201 84.44 78.3501 83.79C78.4801 83.14 78.0501 82.52 77.3901 82.39C76.3901 82.2 75.4301 82.04 74.5101 81.91C76.2701 79 79.2801 75.02 81.3701 74.52C81.8401 74.41 82.1001 74.52 82.2901 74.64C82.9301 75.29 83.1301 79.72 82.3901 85.06C82.3301 85.52 82.5401 85.98 82.9401 86.23C83.0601 86.3 92.3601 92.21 93.8901 100.28C93.9401 100.57 93.7201 100.83 93.4201 100.85C92.3501 100.9 91.2701 101.01 90.1801 101.2C89.5201 101.31 89.0801 101.93 89.1901 102.58C89.3001 103.23 89.9301 103.67 90.5901 103.55C91.6501 103.37 92.7001 103.27 93.7401 103.23C93.9201 103.22 94.0701 103.37 94.0501 103.55C93.9701 104.34 93.8201 105.12 93.5801 105.91ZM58.4901 108.31C59.1501 108.4 59.7601 107.94 59.8501 107.29C59.9401 106.63 59.4701 106.03 58.8301 105.94C50.3401 104.81 42.8801 106.89 42.5701 106.98C41.9301 107.17 41.5601 107.83 41.7401 108.46C41.8901 108.98 42.3701 109.32 42.9001 109.32C43.0101 109.32 43.1201 109.3 43.2301 109.27C43.3001 109.25 50.5301 107.25 58.4901 108.31ZM89.3601 95.31L80.1001 96.49C80.1001 96.49 84.4001 91.71 89.3601 95.31ZM69.7701 96.6L57.8601 95.14C64.2401 90.69 69.7701 96.6 69.7701 96.6Z" fill="#939598"/>
</svg>
